<svg version="1.1" id="Layer_1" xmlns="http://www.w3.org/2000/svg" xmlns:xlink="http://www.w3.org/1999/xlink" x="0px" y="0px"
	 width="100%" viewBox="0 0 500 500" enable-background="new 0 0 500 500" xml:space="preserve">
<path fill="#FFFFFF" opacity="1.000000" stroke="none" 
	d="
M1.000000,193.000000 
	C1.000000,128.682602 1.000000,64.865211 1.000000,1.023907 
	C167.609100,1.023907 334.218231,1.023907 500.913666,1.023907 
	C500.913666,167.567459 500.913666,334.134979 500.913666,500.851257 
	C334.333435,500.851257 167.666733,500.851257 1.000000,500.851257 
	C1.000000,398.448303 1.000000,295.974152 1.000000,193.000000 
M420.037506,191.661713 
	C425.017731,183.176559 430.057709,174.725754 434.958801,166.195145 
	C438.716614,159.654434 442.299042,153.012985 445.959503,146.416336 
	C436.141785,151.120361 427.112854,156.382462 417.996857,161.489105 
	C400.850739,171.094070 383.612915,180.536194 366.515289,190.226151 
	C363.256104,192.073288 359.414856,194.132172 357.638580,197.150543 
	C348.083344,213.387497 339.162689,229.996307 329.895355,246.404648 
	C317.135986,268.995850 304.265411,291.524231 291.436920,314.076385 
	C281.717072,331.163574 271.957428,348.228180 262.279144,365.338837 
	C258.347351,372.289978 255.564438,379.224762 255.764435,387.809906 
	C256.400635,415.118683 256.000000,442.451660 256.000000,469.775269 
	C256.000000,471.692810 256.000000,473.610352 256.000000,475.527924 
	C256.465790,475.702576 256.931580,475.877258 257.397369,476.051941 
	C311.583862,381.505859 365.770386,286.959778 420.037506,191.661713 
M191.998962,92.498436 
	C195.284485,97.857513 198.481400,103.274666 201.926178,108.529343 
	C202.663986,109.654808 204.265854,110.830841 205.527420,110.897942 
	C215.264023,111.415825 225.013138,111.875916 234.761627,111.955292 
	C253.577301,112.108505 272.399017,111.788528 291.209534,112.135658 
	C296.490387,112.233116 300.270935,111.377197 302.423004,106.158798 
	C303.457458,103.650383 305.090576,101.385681 306.483124,99.028633 
	C315.166107,84.331429 323.887360,69.656738 332.534973,54.938747 
	C337.471619,46.536655 342.292847,38.066727 347.469910,29.101137 
	C282.462097,2.810348 218.230865,3.003582 153.749023,29.427792 
	C159.081696,38.161964 164.154968,46.378620 169.135818,54.650940 
	C176.613007,67.069221 184.025375,79.526527 191.998962,92.498436 
M244.999939,377.948730 
	C244.339676,375.986908 243.960342,373.869141 242.972214,372.089355 
	C237.729233,362.645782 232.269516,353.322784 227.003128,343.891968 
	C213.959778,320.534546 200.982971,297.140015 187.975052,273.762787 
	C175.667328,251.643982 163.377060,229.515381 151.021484,207.423294 
	C148.847977,203.537018 147.228973,198.638504 143.891953,196.249786 
	C136.729614,191.122818 128.594742,187.361252 120.892242,182.980545 
	C108.841568,176.126892 96.848984,169.170685 84.774391,162.359680 
	C76.737114,157.826035 68.599922,153.469498 59.309006,148.376770 
	C121.171684,256.787750 182.355591,364.009247 243.539505,471.230713 
	C244.026337,471.115509 244.513168,471.000336 245.000000,470.885132 
	C245.000000,440.210876 245.000000,409.536652 244.999939,377.948730 
M148.500000,138.000000 
	C120.144417,138.000000 91.788826,138.000000 62.858471,138.000000 
	C75.594810,145.153412 87.968552,152.061172 100.301231,159.041504 
	C112.926704,166.187531 125.543716,173.349716 138.102295,180.612259 
	C145.073883,184.643845 151.939850,187.722198 160.559967,187.194092 
	C176.937393,186.190720 193.383621,186.183823 209.803772,186.028839 
	C254.049393,185.611176 298.296082,185.209106 342.542999,185.117401 
	C350.278046,185.101364 357.049744,183.794952 363.880585,179.799225 
	C383.765747,168.167297 404.057556,157.231537 424.153137,145.957291 
	C427.924103,143.841675 431.525146,141.423294 435.204590,139.144623 
	C435.050842,138.763092 434.897095,138.381546 434.743317,138.000000 
	C339.662231,138.000000 244.581116,138.000000 148.500000,138.000000 
M138.038712,384.646271 
	C142.094223,377.875244 146.243683,371.157013 150.108917,364.279083 
	C150.723419,363.185638 150.532104,361.126434 149.908218,359.935516 
	C146.545395,353.516174 142.977982,347.201752 139.389877,340.903107 
	C129.270935,323.140045 119.047180,305.436218 109.017738,287.622925 
	C107.236229,284.458832 105.356865,282.872559 101.409309,282.898590 
	C72.772041,283.087372 44.132965,283.000000 15.494455,283.000000 
	C14.041759,283.000000 12.589064,283.000000 10.789646,283.000000 
	C15.096887,317.824615 26.440287,349.654419 44.564064,378.877686 
	C60.059715,403.863342 79.061661,425.924957 103.418922,443.593079 
	C115.116310,423.883545 126.537567,404.639313 138.038712,384.646271 
M468.516815,358.986359 
	C480.013306,334.938080 488.082397,309.901947 491.131012,283.000092 
	C460.564697,283.000092 430.768097,282.967072 400.972290,283.104889 
	C399.589172,283.111267 397.625977,284.305450 396.920563,285.520050 
	C382.847260,309.751526 368.894684,334.053436 355.046722,358.414459 
	C354.449799,359.464600 354.582733,361.518066 355.225830,362.597717 
	C368.083679,384.183044 381.045410,405.706696 394.041992,427.209045 
	C396.749847,431.689148 399.680206,436.034760 402.673523,440.700287 
	C430.903656,418.062744 452.237396,391.059998 468.516815,358.986359 
M331.510315,201.000458 
	C327.761383,201.333633 324.013733,201.937653 320.263336,201.954956 
	C299.772797,202.049576 279.281555,202.000000 258.790558,202.000000 
	C228.382324,202.000000 197.974075,202.000000 166.143982,202.000000 
	C194.777802,253.391647 222.617752,303.358490 250.844345,354.019287 
	C279.819275,302.658600 308.253510,252.256393 337.022156,201.261383 
	C334.690186,201.129471 333.546021,201.064743 331.510315,201.000458 
M366.986633,464.517395 
	C371.683960,461.793640 376.381317,459.069855 381.296753,456.219635 
	C367.304352,433.138672 353.453918,410.291901 338.925720,386.327087 
	C318.249939,422.392303 298.489655,456.860565 278.346497,491.996735 
	C280.854187,491.996735 282.544556,492.292633 284.093719,491.950134 
	C296.846252,489.130676 309.903107,487.176727 322.222198,483.038757 
	C337.262756,477.986633 351.677246,471.070648 366.986633,464.517395 
M21.999794,172.509506 
	C12.775701,199.510254 8.028390,227.177460 9.118424,255.775162 
	C36.014614,255.775162 62.426128,255.775162 90.479057,255.775162 
	C70.420952,220.523453 50.857517,186.141098 30.582132,150.507523 
	C27.394606,158.416214 24.718882,165.055054 21.999794,172.509506 
M410.459564,68.974388 
	C397.640411,59.445663 384.821228,49.916935 371.415863,39.952454 
	C357.055450,64.358917 343.269562,87.788918 329.195312,111.709030 
	C369.825867,111.709030 409.181427,111.709030 448.969543,111.709030 
	C437.554047,96.057793 425.072479,82.040794 410.459564,68.974388 
M211.683929,490.996338 
	C216.070129,491.381683 220.456314,491.766998 225.568222,492.216064 
	C205.625656,457.342438 186.326492,423.593933 166.606384,389.109344 
	C152.395111,412.955292 138.763046,435.829376 124.833275,459.202972 
	C135.102188,464.402863 144.780960,469.911133 154.951340,474.273254 
	C164.068512,478.183655 173.639603,481.126312 183.171295,483.953552 
	C192.269348,486.652252 201.575012,488.651001 211.683929,490.996338 
M64.557449,111.000000 
	C100.299583,111.000000 136.041718,111.000000 172.657715,111.000000 
	C158.379288,87.393776 144.573654,64.569221 130.578476,41.431313 
	C99.629807,59.066513 74.592827,82.229614 53.620758,111.000000 
	C57.591850,111.000000 60.588177,111.000000 64.557449,111.000000 
M427.540588,231.963104 
	C422.959015,239.809158 418.377441,247.655212 413.637573,255.772369 
	C440.452393,255.772369 466.546265,255.772369 492.948761,255.772369 
	C494.033630,220.177765 486.850800,186.533371 472.455475,153.250778 
	C470.951263,155.777603 469.953766,157.412521 468.995361,159.070068 
	C462.867493,169.668106 456.681122,180.233047 450.642944,190.882034 
	C443.018494,204.328613 435.517181,217.845047 427.540588,231.963104 
z"/>
<path fill="#1C1B17" opacity="1.000000" stroke="none" 
	d="
M419.997192,192.037689 
	C365.770386,286.959778 311.583862,381.505859 257.397369,476.051941 
	C256.931580,475.877258 256.465790,475.702576 256.000000,475.527924 
	C256.000000,473.610352 256.000000,471.692810 256.000000,469.775269 
	C256.000000,442.451660 256.400635,415.118683 255.764435,387.809906 
	C255.564438,379.224762 258.347351,372.289978 262.279144,365.338837 
	C271.957428,348.228180 281.717072,331.163574 291.436920,314.076385 
	C304.265411,291.524231 317.135986,268.995850 329.895355,246.404648 
	C339.162689,229.996307 348.083344,213.387497 357.638580,197.150543 
	C359.414856,194.132172 363.256104,192.073288 366.515289,190.226151 
	C383.612915,180.536194 400.850739,171.094070 417.996857,161.489105 
	C427.112854,156.382462 436.141785,151.120361 445.959503,146.416336 
	C442.299042,153.012985 438.716614,159.654434 434.958801,166.195145 
	C430.057709,174.725754 425.017731,183.176559 419.997192,192.037689 
z"/>
<path fill="#1C1B17" opacity="1.000000" stroke="none" 
	d="
M191.732132,92.232834 
	C184.025375,79.526527 176.613007,67.069221 169.135818,54.650940 
	C164.154968,46.378620 159.081696,38.161964 153.749023,29.427792 
	C218.230865,3.003582 282.462097,2.810348 347.469910,29.101137 
	C342.292847,38.066727 337.471619,46.536655 332.534973,54.938747 
	C323.887360,69.656738 315.166107,84.331429 306.483124,99.028633 
	C305.090576,101.385681 303.457458,103.650383 302.423004,106.158798 
	C300.270935,111.377197 296.490387,112.233116 291.209534,112.135658 
	C272.399017,111.788528 253.577301,112.108505 234.761627,111.955292 
	C225.013138,111.875916 215.264023,111.415825 205.527420,110.897942 
	C204.265854,110.830841 202.663986,109.654808 201.926178,108.529343 
	C198.481400,103.274666 195.284485,97.857513 191.732132,92.232834 
z"/>
<path fill="#1C1B17" opacity="1.000000" stroke="none" 
	d="
M244.999969,378.405579 
	C245.000000,409.536652 245.000000,440.210876 245.000000,470.885132 
	C244.513168,471.000336 244.026337,471.115509 243.539505,471.230713 
	C182.355591,364.009247 121.171684,256.787750 59.309006,148.376770 
	C68.599922,153.469498 76.737114,157.826035 84.774391,162.359680 
	C96.848984,169.170685 108.841568,176.126892 120.892242,182.980545 
	C128.594742,187.361252 136.729614,191.122818 143.891953,196.249786 
	C147.228973,198.638504 148.847977,203.537018 151.021484,207.423294 
	C163.377060,229.515381 175.667328,251.643982 187.975052,273.762787 
	C200.982971,297.140015 213.959778,320.534546 227.003128,343.891968 
	C232.269516,353.322784 237.729233,362.645782 242.972214,372.089355 
	C243.960342,373.869141 244.339676,375.986908 244.999969,378.405579 
z"/>
<path fill="#1C1B17" opacity="1.000000" stroke="none" 
	d="
M149.000000,138.000000 
	C244.581116,138.000000 339.662231,138.000000 434.743317,138.000000 
	C434.897095,138.381546 435.050842,138.763092 435.204590,139.144623 
	C431.525146,141.423294 427.924103,143.841675 424.153137,145.957291 
	C404.057556,157.231537 383.765747,168.167297 363.880585,179.799225 
	C357.049744,183.794952 350.278046,185.101364 342.542999,185.117401 
	C298.296082,185.209106 254.049393,185.611176 209.803772,186.028839 
	C193.383621,186.183823 176.937393,186.190720 160.559967,187.194092 
	C151.939850,187.722198 145.073883,184.643845 138.102295,180.612259 
	C125.543716,173.349716 112.926704,166.187531 100.301231,159.041504 
	C87.968552,152.061172 75.594810,145.153412 62.858471,138.000000 
	C91.788826,138.000000 120.144417,138.000000 149.000000,138.000000 
z"/>
<path fill="#1C1B17" opacity="1.000000" stroke="none" 
	d="
M137.998764,385.020660 
	C126.537567,404.639313 115.116310,423.883545 103.418922,443.593079 
	C79.061661,425.924957 60.059715,403.863342 44.564064,378.877686 
	C26.440287,349.654419 15.096887,317.824615 10.789646,283.000000 
	C12.589064,283.000000 14.041759,283.000000 15.494455,283.000000 
	C44.132965,283.000000 72.772041,283.087372 101.409309,282.898590 
	C105.356865,282.872559 107.236229,284.458832 109.017738,287.622925 
	C119.047180,305.436218 129.270935,323.140045 139.389877,340.903107 
	C142.977982,347.201752 146.545395,353.516174 149.908218,359.935516 
	C150.532104,361.126434 150.723419,363.185638 150.108917,364.279083 
	C146.243683,371.157013 142.094223,377.875244 137.998764,385.020660 
z"/>
<path fill="#1C1B17" opacity="1.000000" stroke="none" 
	d="
M468.280640,359.292877 
	C452.237396,391.059998 430.903656,418.062744 402.673523,440.700287 
	C399.680206,436.034760 396.749847,431.689148 394.041992,427.209045 
	C381.045410,405.706696 368.083679,384.183044 355.225830,362.597717 
	C354.582733,361.518066 354.449799,359.464600 355.046722,358.414459 
	C368.894684,334.053436 382.847260,309.751526 396.920563,285.520050 
	C397.625977,284.305450 399.589172,283.111267 400.972290,283.104889 
	C430.768097,282.967072 460.564697,283.000092 491.131012,283.000092 
	C488.082397,309.901947 480.013306,334.938080 468.280640,359.292877 
z"/>
<path fill="#1C1B17" opacity="1.000000" stroke="none" 
	d="
M331.956085,201.000244 
	C333.546021,201.064743 334.690186,201.129471 337.022156,201.261383 
	C308.253510,252.256393 279.819275,302.658600 250.844345,354.019287 
	C222.617752,303.358490 194.777802,253.391647 166.143982,202.000000 
	C197.974075,202.000000 228.382324,202.000000 258.790558,202.000000 
	C279.281555,202.000000 299.772797,202.049576 320.263336,201.954956 
	C324.013733,201.937653 327.761383,201.333633 331.956085,201.000244 
z"/>
<path fill="#1C1B17" opacity="1.000000" stroke="none" 
	d="
M366.674561,464.739075 
	C351.677246,471.070648 337.262756,477.986633 322.222198,483.038757 
	C309.903107,487.176727 296.846252,489.130676 284.093719,491.950134 
	C282.544556,492.292633 280.854187,491.996735 278.346497,491.996735 
	C298.489655,456.860565 318.249939,422.392303 338.925720,386.327087 
	C353.453918,410.291901 367.304352,433.138672 381.296753,456.219635 
	C376.381317,459.069855 371.683960,461.793640 366.674561,464.739075 
z"/>
<path fill="#1C1B17" opacity="1.000000" stroke="none" 
	d="
M22.021475,172.101700 
	C24.718882,165.055054 27.394606,158.416214 30.582132,150.507523 
	C50.857517,186.141098 70.420952,220.523453 90.479057,255.775162 
	C62.426128,255.775162 36.014614,255.775162 9.118424,255.775162 
	C8.028390,227.177460 12.775701,199.510254 22.021475,172.101700 
z"/>
<path fill="#1C1B17" opacity="1.000000" stroke="none" 
	d="
M410.719147,69.220734 
	C425.072479,82.040794 437.554047,96.057793 448.969543,111.709030 
	C409.181427,111.709030 369.825867,111.709030 329.195312,111.709030 
	C343.269562,87.788918 357.055450,64.358917 371.415863,39.952454 
	C384.821228,49.916935 397.640411,59.445663 410.719147,69.220734 
z"/>
<path fill="#1C1B17" opacity="1.000000" stroke="none" 
	d="
M211.236679,490.976868 
	C201.575012,488.651001 192.269348,486.652252 183.171295,483.953552 
	C173.639603,481.126312 164.068512,478.183655 154.951340,474.273254 
	C144.780960,469.911133 135.102188,464.402863 124.833275,459.202972 
	C138.763046,435.829376 152.395111,412.955292 166.606384,389.109344 
	C186.326492,423.593933 205.625656,457.342438 225.568222,492.216064 
	C220.456314,491.766998 216.070129,491.381683 211.236679,490.976868 
z"/>
<path fill="#1C1B17" opacity="1.000000" stroke="none" 
	d="
M64.070976,111.000000 
	C60.588177,111.000000 57.591850,111.000000 53.620758,111.000000 
	C74.592827,82.229614 99.629807,59.066513 130.578476,41.431313 
	C144.573654,64.569221 158.379288,87.393776 172.657715,111.000000 
	C136.041718,111.000000 100.299583,111.000000 64.070976,111.000000 
z"/>
<path fill="#1C1B17" opacity="1.000000" stroke="none" 
	d="
M427.751648,231.647217 
	C435.517181,217.845047 443.018494,204.328613 450.642944,190.882034 
	C456.681122,180.233047 462.867493,169.668106 468.995361,159.070068 
	C469.953766,157.412521 470.951263,155.777603 472.455475,153.250778 
	C486.850800,186.533371 494.033630,220.177765 492.948761,255.772369 
	C466.546265,255.772369 440.452393,255.772369 413.637573,255.772369 
	C418.377441,247.655212 422.959015,239.809158 427.751648,231.647217 
z"/>
</svg>