<svg version="1.1" id="Layer_1" xmlns="http://www.w3.org/2000/svg" xmlns:xlink="http://www.w3.org/1999/xlink" x="0px" y="0px"
	 width="100%" viewBox="0 0 496 528" enable-background="new 0 0 496 528" xml:space="preserve">
<path fill="#000000" opacity="1.000000" stroke="none" 
	d="
M23.971666,185.115051 
	C28.020779,175.743393 32.408676,166.898865 35.711285,157.666122 
	C41.135712,142.501678 49.790382,129.460678 60.163357,117.383568 
	C60.706142,116.751610 61.319210,116.159233 61.753708,115.458061 
	C79.325874,87.100708 106.229103,68.529205 133.291611,51.247955 
	C151.872452,39.382816 173.645782,31.766169 195.163788,26.348694 
	C214.190155,21.558529 234.287247,20.843893 253.970016,18.930946 
	C261.214844,18.226830 268.449371,20.605419 275.682831,21.619047 
	C288.355865,23.394926 301.054901,25.014219 313.685547,27.054832 
	C324.508728,28.803432 333.825500,34.765209 343.907410,38.606701 
	C364.386230,46.409691 382.870789,57.193382 400.438904,70.676437 
	C420.487762,86.063354 435.980621,104.817490 451.281189,124.429527 
	C462.721283,139.093353 469.685150,155.516327 476.269989,172.412048 
	C477.781525,176.290436 479.091278,180.281036 480.973907,183.975388 
	C488.581299,198.903503 489.369049,215.272614 491.330383,231.406540 
	C492.532959,241.298569 493.728424,251.191788 495.008606,261.073914 
	C495.753601,266.824341 493.874023,272.280273 493.157532,277.842804 
	C491.183563,293.167297 488.738922,308.431763 486.411438,323.709473 
	C486.114166,325.660828 485.615906,327.637329 484.854889,329.453003 
	C480.799133,339.129730 475.864929,348.511353 472.647675,358.452393 
	C463.961761,385.291046 444.479889,404.861603 428.264282,426.695923 
	C420.377106,437.316040 409.000305,443.451874 399.074371,451.448273 
	C391.295593,457.714966 383.109344,463.474884 375.127075,469.490417 
	C372.577332,471.411835 369.806671,472.877625 366.846130,474.056152 
	C351.838409,480.030548 336.699646,485.707733 321.899353,492.160034 
	C312.000916,496.475372 301.538727,496.812195 291.210968,498.201904 
	C278.691162,499.886566 266.101379,501.044250 253.557495,502.559326 
	C245.294006,503.557404 237.402939,501.080719 229.367767,500.116089 
	C216.498154,498.571136 203.722870,496.256012 190.871582,494.536377 
	C184.417542,493.672760 178.960739,490.377930 173.153168,487.989441 
	C159.446518,482.352264 145.906433,476.311371 132.259323,470.527252 
	C129.751236,469.464264 127.623192,467.924103 125.531532,466.280090 
	C112.168907,455.777588 98.863220,445.201965 85.437965,434.780273 
	C81.580910,431.786163 78.222885,428.443939 75.342163,424.497070 
	C69.153389,416.017914 63.316822,407.197693 56.373505,399.371002 
	C42.520790,383.755951 35.472157,364.773499 28.190857,345.815186 
	C26.817831,342.240234 25.629833,338.559143 23.889757,335.166382 
	C16.924690,321.586060 16.692766,306.619019 14.737052,292.007263 
	C13.722715,284.428802 13.082267,276.795197 11.890068,269.246979 
	C10.520580,260.576233 11.328217,252.069489 12.679423,243.501007 
	C15.085897,228.240723 17.356331,212.957886 19.530384,197.662704 
	C20.155947,193.261658 22.550079,189.584793 23.971666,185.115051 
M483.335205,201.344452 
	C478.478027,189.119385 473.805817,176.816452 468.703186,164.694702 
	C464.848907,155.538452 462.198975,145.853271 455.793518,137.807007 
	C438.862183,116.538490 425.380859,92.206741 401.393829,77.272858 
	C399.707397,76.222923 398.260345,74.793388 396.674896,73.575623 
	C385.088257,64.676003 374.231689,54.799397 360.022003,49.751076 
	C350.313965,46.302067 341.099823,41.485855 331.485992,37.740025 
	C325.637512,35.461292 320.281586,31.953186 313.800659,31.147083 
	C303.413025,29.855070 293.109283,27.868517 282.712799,26.674131 
	C272.994232,25.557623 263.451080,22.820879 253.532944,23.460266 
	C240.260559,24.315891 227.102890,26.189178 213.929321,27.898355 
	C205.226562,29.027479 196.364380,29.060274 188.008530,32.510548 
	C172.004059,39.119064 155.869019,45.410889 139.815567,51.901913 
	C137.828140,52.705502 135.855255,53.714905 134.134766,54.981049 
	C123.668961,62.683048 113.183678,70.364586 102.898834,78.304176 
	C96.984940,82.869514 90.214645,86.454010 85.342018,92.229782 
	C79.546303,99.099731 74.125893,106.288307 68.599472,113.382927 
	C61.744652,122.182907 52.892750,130.123154 48.529789,140.031540 
	C37.543381,164.981918 22.845129,188.754211 20.651991,216.976578 
	C19.254961,234.954239 13.359502,252.485580 16.207697,270.916840 
	C18.540453,286.012634 19.135174,301.401306 21.924961,316.395081 
	C24.547371,330.489319 31.717960,343.224579 36.973602,356.517609 
	C40.321465,364.985260 42.616676,373.959564 48.265785,381.434326 
	C58.712570,395.257263 69.069473,409.148560 79.391563,423.064941 
	C81.397125,425.768860 83.635178,428.149658 86.286766,430.225311 
	C97.435806,438.952606 108.432953,447.877106 119.685692,456.467438 
	C124.809090,460.378632 129.436188,464.956238 135.652542,467.470856 
	C146.916595,472.027344 157.934906,477.188019 169.161713,481.840973 
	C178.336945,485.643616 187.058411,490.645844 197.297241,491.653809 
	C206.221039,492.532288 215.050598,494.335663 223.965332,495.346161 
	C236.457657,496.762115 248.764191,500.144684 261.609711,497.789124 
	C270.909729,496.083710 280.442078,495.687561 289.810577,494.300507 
	C298.014648,493.085846 306.561249,493.546387 314.392090,490.546478 
	C331.184235,484.113617 347.820923,477.274261 364.506775,470.565308 
	C367.281372,469.449768 369.954834,468.177643 372.396179,466.334778 
	C387.023590,455.292999 401.732544,444.359253 416.390503,433.357819 
	C417.708130,432.368835 419.037933,431.299957 420.057129,430.024475 
	C429.620972,418.056091 439.222534,406.114960 448.580353,393.986267 
	C452.022644,389.524719 456.291107,385.632599 458.574554,380.315857 
	C465.737152,363.638733 472.907562,346.964935 480.051575,330.279877 
	C481.359070,327.226074 482.396332,324.144745 482.848663,320.762512 
	C484.565582,307.924988 486.804199,295.155365 488.413544,282.305969 
	C489.401184,274.420471 491.549713,266.604065 490.548828,258.530518 
	C488.218262,239.731964 485.884857,220.933762 483.335205,201.344452 
z"/>
<path fill="#000000" opacity="1.000000" stroke="none" 
	d="
M93.745087,432.295105 
	C89.613022,429.751709 90.044342,427.265106 92.573845,423.949127 
	C99.521286,414.841858 99.387253,414.762756 92.395317,405.448364 
	C84.493759,394.922241 76.732300,384.288910 68.709793,373.856079 
	C60.088081,362.644012 57.115238,348.897339 51.495171,336.342987 
	C48.912346,330.573364 46.626709,324.663483 44.403057,318.743317 
	C43.310059,315.833374 41.557632,314.832397 38.640739,315.707672 
	C38.481346,315.755463 38.319218,315.799225 38.155270,315.826050 
	C24.743803,318.021027 25.010592,317.994049 23.658150,304.563965 
	C22.142851,289.516693 20.245310,274.501434 18.149952,259.523163 
	C17.561966,255.320084 18.612595,253.649734 22.780891,253.433029 
	C25.923281,253.269653 29.028444,252.454742 32.171707,252.226959 
	C35.870811,251.958862 37.208195,249.974731 37.685249,246.493179 
	C39.534748,232.995621 41.502201,219.512451 43.606415,206.052155 
	C45.200386,195.855759 51.003857,187.224960 54.567123,177.753265 
	C56.558437,172.460068 58.839226,167.258560 61.297394,162.164276 
	C62.920612,158.800323 62.192516,156.687439 59.155182,154.694229 
	C55.960251,152.597610 53.076305,150.033020 49.986755,147.768005 
	C47.520317,145.959808 47.672176,144.254868 49.468388,141.933792 
	C60.271629,127.973732 70.952393,113.918961 81.698792,99.914795 
	C85.564865,94.876709 86.107727,94.836662 91.232506,98.717896 
	C100.826118,105.983566 100.821480,105.977379 110.462074,98.746956 
	C120.990822,90.850418 131.548416,82.992142 142.051331,75.061455 
	C145.002838,72.832802 148.156937,71.064651 151.596725,69.705757 
	C165.070969,64.382721 178.472107,58.871010 192.001144,53.692596 
	C195.703323,52.275539 197.468842,50.406574 196.762405,46.329899 
	C196.196182,43.062370 196.035950,39.723980 195.708206,36.415783 
	C195.400543,33.310337 196.880615,31.807846 199.931854,31.497961 
	C215.627594,29.903881 231.309799,28.171375 247.013901,26.666286 
	C259.398926,25.479303 259.725128,25.584524 260.123779,38.066929 
	C260.297882,43.517651 262.522644,45.139877 267.478882,45.764889 
	C281.818970,47.573273 296.146088,49.570381 310.388184,52.017979 
	C314.717987,52.762085 318.785400,55.138515 322.920044,56.892143 
	C333.803864,61.508282 344.702148,66.095245 355.498779,70.908897 
	C358.812622,72.386383 360.775208,71.877678 363.014893,68.920578 
	C370.881012,58.534725 370.970337,58.656284 381.152863,66.477974 
	C393.174225,75.712212 405.178680,84.971428 417.341492,94.016716 
	C420.689056,96.506241 420.791473,98.518227 418.436005,101.794060 
	C410.659180,112.609543 410.759705,112.681282 418.918335,123.577629 
	C420.615295,125.844032 422.128601,128.278030 424.031464,130.355469 
	C440.395935,148.221222 449.145752,170.156586 457.142670,192.451050 
	C458.932678,197.441360 460.932007,200.580414 466.955444,198.767548 
	C469.772095,197.919830 472.871552,197.982803 475.849884,197.709885 
	C478.713654,197.447449 479.988342,198.768875 480.340149,201.694092 
	C482.521423,219.829559 484.822845,237.950745 487.142609,256.069214 
	C487.540833,259.179596 486.353882,260.836975 483.260101,261.192841 
	C480.287048,261.534851 477.316986,262.187225 474.345734,262.186493 
	C470.813263,262.185638 469.813721,264.096619 469.391388,267.093658 
	C467.049622,283.712189 464.638458,300.320953 462.246063,316.932343 
	C461.617218,321.298645 459.378113,325.080505 457.715057,329.055542 
	C452.830902,340.729309 447.940887,352.405701 442.721985,363.931122 
	C441.214233,367.260864 441.816376,369.046692 444.688141,370.907196 
	C447.474579,372.712341 449.934296,375.013580 452.647766,376.941742 
	C455.470856,378.947845 455.473816,380.858765 453.375732,383.557831 
	C442.337585,397.757690 431.388062,412.027466 420.532349,426.367310 
	C418.198730,429.449890 416.098907,429.890289 413.150940,427.303986 
	C410.651398,425.110992 407.704590,423.408417 405.315002,421.114563 
	C402.511627,418.423523 400.365753,419.045837 397.587311,421.214325 
	C389.447174,427.567444 380.726288,433.225891 372.943329,439.975586 
	C361.293274,450.079071 347.154541,454.937195 333.270050,460.483765 
	C326.312469,463.263153 319.433655,466.261871 312.379608,468.768555 
	C308.762085,470.053986 308.056488,472.152496 308.460938,475.604675 
	C310.415222,492.286835 311.694977,488.144165 296.164764,490.270996 
	C282.675262,492.118347 269.083435,493.210602 255.581314,494.976624 
	C247.159836,496.078094 246.188324,495.589264 245.677643,487.335754 
	C245.038208,477.001099 245.044388,476.958496 234.728073,475.465851 
	C222.718414,473.728180 210.707077,471.993195 198.672623,470.442078 
	C195.636948,470.050781 192.836548,469.187012 190.076050,468.003998 
	C178.749100,463.149872 167.395905,458.355560 156.112106,453.403107 
	C153.221191,452.134308 151.181076,452.285461 149.365051,455.138245 
	C147.671371,457.798798 145.392563,460.087555 143.705475,462.751587 
	C141.305878,466.540619 139.036438,467.006378 135.310211,464.086761 
	C121.674309,453.402679 107.812958,443.006348 93.745087,432.295105 
M99.149841,379.674316 
	C104.060181,387.564392 108.877625,395.516724 116.374352,401.366913 
	C120.835052,404.847931 125.167145,408.493774 129.627167,411.975708 
	C137.367477,418.018524 144.394333,425.651917 153.083649,429.670563 
	C175.595459,440.081787 197.578720,452.485046 223.381439,453.728760 
	C235.094238,454.293335 246.495865,458.661316 258.481384,456.724823 
	C264.061096,455.823334 269.720245,455.425690 275.322815,454.650970 
	C288.293091,452.857452 301.440094,452.416321 313.725708,446.666199 
	C325.314392,441.242279 338.664032,438.755768 349.031372,431.722778 
	C369.276245,417.989014 390.617004,405.035736 404.516571,383.702271 
	C411.118408,373.569611 420.673767,365.524078 425.291443,353.933044 
	C429.111267,344.344696 433.511719,334.988190 437.359375,325.410248 
	C439.330597,320.503326 442.109528,315.910431 442.824890,310.473846 
	C444.256165,299.596466 446.203552,288.783752 447.480957,277.890747 
	C448.154541,272.146606 450.057007,266.536163 449.314545,260.606049 
	C447.991638,250.039642 447.002930,239.429718 445.568420,228.879623 
	C444.697144,222.471893 444.830902,215.834503 442.455292,209.723953 
	C437.206482,196.223129 431.870422,182.751328 426.267609,169.394531 
	C421.495911,158.018997 412.473206,149.475113 405.480591,139.582291 
	C399.367798,130.934113 393.490387,121.936790 384.165955,116.064415 
	C380.803314,113.946678 377.965820,111.012093 374.691315,108.734001 
	C365.441772,102.299095 357.923187,93.315109 347.082855,89.256653 
	C329.250427,82.580460 313.011627,71.577042 293.394867,69.715157 
	C274.640198,67.935089 256.317078,62.708565 236.979584,66.075691 
	C218.999069,69.206543 200.688889,70.067886 183.843719,78.316551 
	C174.748779,82.770134 164.011368,84.597832 155.980728,90.353127 
	C135.949982,104.708504 114.863174,117.885780 100.357796,139.034927 
	C91.337761,152.186325 80.723465,164.116196 75.441566,179.594879 
	C72.706367,187.610443 69.036011,195.322769 65.513847,203.047028 
	C63.821529,206.758362 63.013416,210.611649 62.424469,214.550720 
	C61.391251,221.461273 60.335144,228.374252 59.565231,235.316895 
	C58.559177,244.388840 56.181820,253.366928 56.682106,262.531982 
	C57.107147,270.318512 58.282856,278.075104 59.362518,285.812012 
	C60.556076,294.365051 60.313393,303.273224 63.172150,311.406738 
	C67.913239,324.895721 73.575935,338.066742 79.055038,351.286896 
	C80.872215,355.671387 82.318726,360.481628 87.147110,363.677826 
	C90.421532,369.310638 93.670975,374.962830 99.149841,379.674316 
M431.203735,350.582275 
	C425.654419,364.066162 424.677399,360.379089 434.362854,366.070465 
	C434.592987,366.205688 434.993561,366.050903 435.912659,365.994965 
	C440.131439,356.189423 444.592896,346.194427 448.732666,336.067932 
	C451.550415,329.175232 455.646149,322.753937 456.782104,315.219025 
	C459.032410,300.292328 461.271729,285.363770 463.432190,270.423920 
	C463.720673,268.429138 464.589172,265.488220 461.195679,265.517426 
	C458.334076,265.542023 454.077209,263.289734 453.219147,268.658905 
	C452.197327,275.052673 451.430298,281.490936 450.265472,287.857300 
	C448.035126,300.047821 448.177155,312.696869 442.607697,324.250336 
	C438.566956,332.632599 435.147522,341.314362 431.203735,350.582275 
M191.354858,451.280975 
	C180.820374,446.749847 170.285904,442.218689 159.751389,437.687622 
	C151.632233,434.195404 151.628632,434.193756 147.860260,442.240204 
	C147.735687,442.506226 147.844467,442.881470 147.844467,443.474213 
	C148.874939,444.059448 149.962662,444.816956 151.154907,445.333008 
	C165.187546,451.406769 179.227264,457.464508 193.292542,463.462158 
	C194.794968,464.102814 196.447540,464.490570 198.069748,464.735687 
	C213.161850,467.016205 228.262070,469.243042 243.361237,471.476654 
	C245.818451,471.840179 248.413910,471.947662 248.443207,468.565216 
	C248.468582,465.634064 250.382111,461.684143 244.831192,461.017517 
	C236.268753,459.989258 227.724640,458.732635 219.227432,457.257721 
	C210.116882,455.676361 200.603989,455.930054 191.354858,451.280975 
M69.661171,156.471100 
	C63.927872,169.742889 58.180382,183.008591 52.473492,196.291718 
	C51.360367,198.882568 49.895535,201.459778 49.460732,204.181900 
	C46.949917,219.900894 44.713264,235.663544 42.350361,251.406403 
	C41.825653,254.902283 43.507008,256.227417 46.761765,256.411621 
	C49.669128,256.576111 52.320770,257.136078 52.834705,252.771957 
	C53.881069,243.886627 55.216133,235.026367 56.738682,226.208694 
	C58.089062,218.388092 57.919521,210.255585 61.069798,202.795654 
	C66.241493,190.548920 71.571190,178.368988 76.805931,166.148758 
	C79.504295,159.849564 77.561829,156.924347 69.661171,156.471100 
M90.612144,393.918457 
	C93.763535,398.090515 96.914925,402.262573 100.040398,406.400330 
	C108.408546,400.189301 108.407936,400.189758 102.748566,392.634033 
	C95.767357,383.313568 88.814850,373.971405 81.791557,364.682739 
	C79.371902,361.482605 77.309982,358.146912 75.827827,354.377594 
	C70.779266,341.538269 65.435974,328.813782 60.477757,315.940491 
	C58.340927,310.392517 54.895260,313.639343 51.916412,314.237885 
	C47.975098,315.029846 49.830044,317.683655 50.613918,319.673859 
	C55.731339,332.666504 60.906624,345.636658 66.134888,358.585114 
	C67.311813,361.499939 68.462051,364.422119 70.422081,366.994904 
	C77.075256,375.728027 83.605392,384.554901 90.612144,393.918457 
M345.913879,72.661156 
	C339.188812,69.776688 332.516937,66.759193 325.723724,64.045235 
	C318.958710,61.342525 312.614380,57.511372 305.208099,56.485188 
	C291.071320,54.526455 276.955811,52.413403 262.813507,50.496723 
	C260.552673,50.190311 257.286499,49.216877 257.434204,53.383980 
	C257.538361,56.322723 255.684616,60.233150 261.256165,60.859531 
	C270.158508,61.860374 278.992615,63.453434 287.871674,64.679596 
	C298.730225,66.179108 309.487915,67.612999 319.568726,72.650330 
	C329.072266,77.399200 339.166809,80.951042 348.835175,85.391319 
	C352.629547,87.133911 354.726471,86.304749 356.305817,82.758331 
	C356.959747,81.289970 358.365997,80.093552 357.796173,77.879745 
	C354.173096,76.299828 350.384460,74.647713 345.913879,72.661156 
M405.794678,132.721680 
	C408.525513,136.290466 411.475677,139.714752 413.942047,143.457825 
	C419.232056,151.486191 426.483917,158.165909 430.083679,167.362778 
	C435.055450,180.064941 440.312256,192.656174 445.221710,205.381821 
	C447.375336,210.964340 451.184174,208.303726 454.319092,207.395935 
	C458.069244,206.310013 455.731812,203.567780 454.998016,201.692123 
	C449.906281,188.676727 444.686432,175.711365 439.481110,162.740601 
	C438.368835,159.969040 437.259521,157.224213 435.409149,154.780121 
	C426.265015,142.701752 417.224915,130.544662 408.128387,118.430161 
	C407.363983,117.412155 406.851898,116.018494 405.241302,116.006187 
	C397.809723,121.620010 397.811371,121.618828 403.056091,128.887970 
	C403.835266,129.967850 404.590790,131.064789 405.794678,132.721680 
M156.541260,84.848305 
	C170.150284,79.434280 183.780823,74.073341 197.354248,68.571472 
	C201.072433,67.064354 201.632660,64.062042 199.538910,59.385971 
	C197.931229,55.795460 195.549713,58.047630 193.687775,58.778000 
	C179.900436,64.186295 166.155273,69.703651 152.439606,75.291641 
	C150.309677,76.159416 148.258621,77.374565 146.407394,78.747665 
	C134.773560,87.376778 123.197144,96.083519 111.629715,104.801704 
	C110.219078,105.864868 108.382721,106.593140 107.957283,108.601463 
	C113.596527,116.317474 113.565536,116.275566 120.857300,110.883949 
	C132.500320,102.274948 144.189240,93.728027 156.541260,84.848305 
M315.333344,461.726349 
	C323.213684,458.590668 331.102570,455.476227 338.972229,452.313934 
	C348.519379,448.477570 358.244507,445.101074 366.229492,438.107269 
	C371.221558,433.734833 376.829193,430.066284 382.150330,426.068207 
	C387.562775,422.001495 392.962677,417.918060 398.337372,413.865112 
	C392.605499,405.402344 392.575989,405.391724 384.984863,410.853668 
	C383.499878,411.922150 382.088806,413.094269 380.593689,414.147614 
	C365.984375,424.440643 352.975830,437.166718 335.231812,442.632935 
	C326.995087,445.170288 319.141754,448.948822 311.106598,452.144623 
	C304.071320,454.942780 304.056610,454.933411 306.339783,462.156464 
	C306.575897,462.903473 307.015594,463.586121 307.355316,464.287292 
	C310.204681,464.284454 312.281067,462.710297 315.333344,461.726349 
M71.581551,120.061440 
	C67.091446,125.947960 62.601341,131.834488 58.027740,137.830460 
	C61.696129,141.165268 64.852959,144.019501 69.176033,146.375671 
	C75.081215,138.950485 81.089867,131.702881 86.754799,124.195877 
	C94.193092,114.338867 94.842102,117.553665 84.503937,109.263214 
	C82.318184,107.510391 80.840256,107.661354 79.224228,109.965050 
	C76.938721,113.223145 74.431900,116.326012 71.581551,120.061440 
M246.916931,44.286720 
	C248.704544,42.035000 247.501053,39.469440 247.629135,37.055653 
	C247.861160,32.682713 245.967514,30.671606 241.323318,31.260950 
	C234.083160,32.179722 226.776505,32.590427 219.547806,33.580074 
	C208.067596,35.151775 208.078537,35.279312 209.394852,47.188473 
	C209.462631,47.801701 209.798019,48.385357 210.181519,49.472263 
	C222.241852,47.868176 234.216278,46.275517 246.916931,44.286720 
M438.070221,396.588531 
	C439.799805,394.356232 441.561737,392.148041 443.246857,389.882660 
	C444.262817,388.516876 445.023438,387.252594 443.481079,385.501617 
	C437.099487,378.256927 434.200378,378.249359 428.375214,385.730988 
	C422.388641,393.419891 416.404297,401.110474 410.356812,408.880188 
	C413.994385,412.437408 417.453735,415.176025 421.753784,417.692841 
	C427.118805,410.765747 432.386047,403.964935 438.070221,396.588531 
M478.472168,249.059219 
	C482.142883,248.653091 481.820129,246.058502 481.491364,243.498215 
	C480.247192,233.808029 478.816650,224.137375 477.823761,214.421814 
	C477.491272,211.168625 476.371643,209.889404 473.221497,210.363632 
	C471.583710,210.610184 469.946838,211.090378 468.311798,211.080734 
	C464.580261,211.058792 463.893829,213.134232 464.284363,216.256073 
	C464.695129,219.539536 464.821655,222.866226 465.374176,226.122803 
	C466.714752,234.024353 466.688812,242.152847 468.778900,250.128082 
	C472.100891,249.809097 474.893799,249.540909 478.472168,249.059219 
M294.842651,472.917236 
	C285.807434,473.852203 276.730438,474.497650 267.747528,475.794922 
	C256.317688,477.445526 256.347168,477.673706 258.599060,489.322815 
	C258.650909,489.591034 259.019257,489.798096 259.447571,490.255249 
	C268.516663,489.318878 277.765717,488.581482 286.950623,487.360962 
	C298.625366,485.809509 298.771576,485.360931 294.842651,472.917236 
M25.008156,280.759155 
	C25.789114,287.514679 26.666872,294.261108 27.304890,301.030121 
	C27.571825,303.862091 28.710972,304.928528 31.493345,304.269867 
	C32.620403,304.003113 33.806999,303.695038 34.936928,303.783508 
	C40.045109,304.183441 41.236652,301.523529 40.667797,297.036835 
	C39.519840,287.982666 38.427227,278.918915 37.510456,269.839050 
	C37.033058,265.110840 35.109898,263.784027 30.309179,264.869080 
	C23.198372,266.476227 23.135620,266.120850 24.132048,273.454193 
	C24.422211,275.589661 24.584637,277.742493 25.008156,280.759155 
M253.091537,59.499748 
	C254.677551,50.728470 253.683228,49.493256 245.914230,50.474350 
	C233.222305,52.077137 220.530228,53.679520 207.830704,55.220142 
	C205.492981,55.503742 202.555695,55.222240 203.573212,58.852650 
	C204.378052,61.724323 203.848755,66.238213 209.028198,65.599541 
	C223.526215,63.811806 238.011642,61.921951 253.091537,59.499748 
M292.954681,467.354340 
	C295.099304,467.115387 297.241699,466.853271 299.389313,466.645111 
	C300.982819,466.490631 302.329590,466.165100 302.517029,464.173340 
	C302.989319,459.153961 299.967682,455.835175 295.019897,456.407013 
	C282.490875,457.854889 269.972229,459.401337 257.467377,461.044891 
	C252.288315,461.725616 251.547440,463.062134 252.340256,468.762970 
	C252.998993,473.499664 256.522125,471.614990 258.926331,471.367340 
	C269.989716,470.227783 281.026428,468.828857 292.954681,467.354340 
M43.184086,271.641144 
	C44.570152,283.657867 45.961525,295.674011 47.334118,307.692291 
	C47.472294,308.902130 47.694435,309.971863 49.051750,310.416840 
	C53.061440,311.731354 58.080490,307.922607 57.586376,303.771423 
	C55.998898,290.434601 54.279266,277.113495 52.703270,263.775360 
	C52.442188,261.565735 51.500858,260.626526 49.297794,260.350830 
	C43.042000,259.567993 41.864231,260.581909 42.393158,266.828400 
	C42.504696,268.145660 42.821835,269.445496 43.184086,271.641144 
M458.836212,218.436432 
	C458.188385,216.061981 459.871246,212.710205 456.393768,211.531128 
	C452.538361,210.223892 447.906525,213.967834 448.380524,218.130096 
	C449.916595,231.619598 451.638000,245.088440 453.355621,258.556610 
	C453.974426,263.408813 457.860229,261.266968 460.455750,261.573761 
	C463.668396,261.953491 463.880768,259.598267 463.606079,257.295837 
	C462.094757,244.628510 460.519592,231.968781 458.836212,218.436432 
M105.744209,427.311188 
	C101.529831,432.974213 101.511726,432.997711 107.013329,437.236298 
	C111.225784,440.481720 115.494278,443.654327 119.732384,446.866547 
	C123.922829,450.042572 128.106461,453.227631 132.525436,456.585297 
	C134.318222,454.261444 135.568283,452.293854 137.157532,450.655212 
	C140.213531,447.504211 139.806717,445.349823 136.202591,442.734314 
	C129.214249,437.662994 122.610649,432.064392 115.766579,426.789429 
	C113.869431,425.327240 112.328789,423.129456 109.431442,423.025543 
	C108.345650,424.280975 107.264748,425.530731 105.744209,427.311188 
M95.822044,121.301636 
	C89.774109,129.012543 83.706787,136.708344 77.683861,144.438736 
	C72.007324,151.724518 72.146812,152.172745 80.870346,155.965179 
	C81.012337,156.026901 81.197868,155.988495 81.938622,156.025803 
	C91.045975,144.429596 100.361160,132.568192 109.677254,120.707504 
	C110.634972,119.488190 110.460434,118.407387 109.638992,117.093391 
	C106.169151,111.542908 103.731644,111.377014 99.755676,116.525551 
	C98.640007,117.970253 97.434097,119.345268 95.822044,121.301636 
M405.047516,406.516602 
	C414.346741,394.696228 423.645966,382.875854 432.819092,371.215729 
	C430.951355,368.638702 428.804932,367.964539 427.068909,366.729370 
	C425.225494,365.417816 423.774719,365.777832 422.391724,367.549286 
	C413.799988,378.553833 405.116486,389.486969 396.563416,400.521301 
	C393.519897,404.447754 397.694855,406.067505 399.515900,408.217316 
	C401.656494,410.744415 403.245514,408.949615 405.047516,406.516602 
M385.221283,98.305481 
	C377.808319,92.469322 370.395325,86.633163 363.057373,80.856056 
	C360.764069,82.445549 360.234894,84.684685 358.942444,86.371498 
	C357.284546,88.535225 357.696442,90.016403 359.897247,91.715019 
	C370.687347,100.043060 381.378662,108.500290 392.035828,116.998451 
	C394.092377,118.638367 395.806763,118.921288 397.612610,116.852333 
	C398.995544,115.267853 401.060516,114.189606 401.534637,111.198616 
	C396.420654,107.152382 391.104553,102.946259 385.221283,98.305481 
M116.845024,420.639160 
	C125.448631,427.336823 134.052231,434.034515 142.591110,440.681793 
	C149.415726,433.698517 149.404465,433.045013 142.803635,427.799438 
	C141.373459,426.662903 139.927597,425.546143 138.494202,424.413635 
	C130.285095,417.927429 121.991020,411.544708 113.905472,404.907928 
	C109.774963,401.517548 108.107941,405.095795 105.806725,407.221313 
	C103.152916,409.672455 104.940750,411.226837 106.911148,412.773621 
	C110.046165,415.234711 113.162384,417.719757 116.845024,420.639160 
M378.529175,70.104965 
	C375.576630,71.871986 374.238983,75.021164 372.179871,77.550659 
	C371.002594,78.996880 371.372284,80.323380 372.765259,81.418159 
	C382.118408,88.769058 391.476837,96.113205 401.109314,103.676041 
	C403.186157,101.051033 404.826202,98.771095 406.682861,96.683807 
	C408.995483,94.083923 408.606384,92.373642 405.757111,90.302017 
	C396.768372,83.766518 387.978790,76.957130 378.529175,70.104965 
M303.353180,485.519440 
	C303.925964,485.232697 304.945709,485.015625 305.002899,484.648560 
	C305.621277,480.680267 304.665192,476.797852 304.079193,472.907990 
	C303.958649,472.107788 303.064575,471.614838 302.094116,471.886505 
	C301.000732,472.192657 300.405670,472.970367 300.389160,474.067535 
	C300.329803,478.009125 300.146423,481.987549 303.353180,485.519440 
M407.231934,413.334747 
	C405.604919,414.618744 405.287720,415.992950 407.055847,417.389740 
	C409.524506,419.339844 412.020569,421.256073 414.531952,423.150879 
	C415.488983,423.872894 416.539795,424.513184 417.559784,423.228363 
	C418.612305,421.902588 418.237488,420.769684 416.975647,419.836884 
	C413.932617,417.587219 411.294281,414.774841 407.231934,413.334747 
M200.462692,43.989773 
	C200.789368,45.430332 201.065247,46.884953 201.458954,48.306950 
	C201.768951,49.426571 202.657486,49.774117 203.752441,49.671215 
	C204.694504,49.582680 205.543900,48.936279 205.340408,48.146999 
	C204.285812,44.056728 205.688858,39.358479 202.738556,35.437389 
	C198.922546,37.534725 200.793427,40.646774 200.462692,43.989773 
M64.319977,152.774872 
	C66.577072,151.296646 65.839691,149.702927 64.289131,148.378647 
	C62.042557,146.459930 59.620819,144.747284 57.292339,142.923080 
	C56.116726,142.002060 55.039230,141.550629 53.982941,143.099686 
	C52.933006,144.639435 53.866055,145.572815 54.968224,146.388138 
	C57.868805,148.533875 60.809731,150.625061 64.319977,152.774872 
M480.485199,257.363281 
	C481.590363,256.886108 482.658752,256.314880 482.415070,254.868652 
	C482.158325,253.344742 480.895355,253.255325 479.723999,253.362061 
	C477.100830,253.601074 474.487640,253.949280 471.870239,254.251984 
	C470.420563,254.419632 469.196960,254.905869 469.429871,256.669586 
	C469.712891,258.812988 471.306580,258.562195 472.837585,258.369385 
	C475.128571,258.080872 477.423340,257.822540 480.485199,257.363281 
M32.288658,256.322235 
	C29.668190,256.699127 27.040409,257.032501 24.430338,257.471252 
	C23.122828,257.691040 22.359514,258.548126 22.546417,259.933167 
	C22.750887,261.448364 23.936394,261.693939 25.155672,261.567657 
	C27.952871,261.278076 30.744286,260.920532 33.528481,260.523499 
	C34.579311,260.373627 35.398815,259.773651 35.534328,258.630798 
	C35.750534,256.807434 34.581005,256.370605 32.288658,256.322235 
M29.114147,309.148529 
	C27.783718,312.119781 29.619291,312.720947 31.904510,312.604004 
	C34.208073,312.486084 36.491199,312.001556 38.788902,311.724274 
	C40.151329,311.559906 41.594574,311.442169 41.612003,309.644073 
	C41.631981,307.582275 40.092327,307.212830 38.508957,307.393463 
	C35.558372,307.730103 32.628830,308.251190 29.114147,309.148529 
M92.362915,110.104530 
	C93.870941,110.856476 95.514030,112.959160 96.996071,110.573776 
	C98.225906,108.594299 95.890503,107.763786 94.763023,106.772781 
	C92.900467,105.135689 90.864143,103.692726 88.868126,102.212349 
	C87.660789,101.316910 86.392792,101.124512 85.392822,102.496567 
	C84.443153,103.799614 85.391304,104.655869 86.314621,105.401634 
	C88.119408,106.859360 89.961609,108.270767 92.362915,110.104530 
M463.540131,203.474060 
	C461.521729,205.260544 462.802795,206.957352 464.441833,206.956650 
	C468.007050,206.955124 471.716888,207.159668 475.133545,205.655258 
	C476.124207,205.219055 476.667053,204.363571 476.382599,203.253525 
	C476.068024,202.026031 475.061920,201.944687 474.019684,202.074493 
	C470.758911,202.480530 467.499451,202.897156 463.540131,203.474060 
M449.528442,381.064636 
	C447.827515,377.170776 443.846008,375.786560 440.893829,373.275482 
	C440.085846,372.588226 439.055939,372.619598 438.256012,373.577057 
	C437.317719,374.700165 437.473267,375.745697 438.553406,376.591492 
	C441.163910,378.635620 443.790863,380.662445 446.480347,382.600250 
	C447.723541,383.496033 448.644226,382.749115 449.528442,381.064636 
M139.684784,454.141083 
	C139.184357,454.800140 138.589752,455.408752 138.204025,456.129181 
	C137.500870,457.442474 135.508469,458.821136 137.778992,460.279968 
	C139.491837,461.380493 140.567139,459.874512 141.401749,458.673889 
	C143.347549,455.874908 146.041946,453.555389 147.324936,450.083008 
	C142.613998,447.163818 142.122147,451.876068 139.684784,454.141083 
M253.681519,490.206543 
	C254.380920,486.907440 253.666885,483.653229 253.259125,480.411499 
	C252.907425,477.615295 251.420227,476.780884 248.890869,478.352539 
	C249.036270,480.216064 249.130249,481.863098 249.302368,483.501953 
	C249.474594,485.142059 249.719727,486.774658 249.942291,488.409271 
	C250.204559,490.335297 250.886307,491.656342 253.681519,490.206543 
M253.461380,30.426859 
	C251.234756,32.379784 251.033005,41.917515 253.269928,43.259041 
	C254.703568,44.118816 256.501526,43.379372 256.232758,41.988964 
	C255.499481,38.195435 257.025757,33.970726 253.461380,30.426859 
M101.499954,419.318970 
	C99.894196,421.436188 98.257294,423.530823 96.695702,425.680115 
	C95.901604,426.773071 95.084282,428.024323 96.691055,429.096191 
	C98.209503,430.109161 99.126457,429.048096 99.981789,427.938843 
	C101.605125,425.833588 103.246979,423.742584 104.876205,421.641846 
	C105.590256,420.721191 106.509590,419.762268 105.346138,418.619843 
	C104.191925,417.486511 102.992050,417.535553 101.499954,419.318970 
M405.584351,105.479042 
	C406.010284,108.368248 407.280579,109.080635 409.326691,106.724953 
	C411.047241,104.744110 412.568451,102.585518 414.113464,100.458786 
	C414.843903,99.453331 416.076172,98.385040 414.465027,97.115166 
	C412.804688,95.806519 411.692719,96.916489 410.763763,98.127800 
	C409.067078,100.340286 407.472534,102.631165 405.584351,105.479042 
M365.825562,72.022743 
	C364.785187,73.284370 364.039459,74.576271 365.845215,75.787247 
	C367.525269,76.913918 368.245819,75.385307 369.048920,74.444626 
	C370.558380,72.676727 371.980347,70.832108 373.395660,68.986404 
	C375.112579,66.747337 373.832428,65.770508 371.390259,64.993454 
	C369.699677,67.118477 367.961395,69.303391 365.825562,72.022743 
z"/>
<path fill="#000000" opacity="1.000000" stroke="none" 
	d="
M99.267151,379.186401 
	C96.035271,373.166260 91.788902,368.266327 87.273483,363.181702 
	C79.370552,350.576324 75.730194,336.405609 69.629272,323.332123 
	C64.652481,312.667511 62.979351,301.463104 61.740238,290.025970 
	C60.916229,282.420319 60.254539,274.767059 58.837372,267.264069 
	C57.400925,259.659027 58.807049,252.358109 59.852127,244.966202 
	C61.179398,235.578384 62.858826,226.230331 63.863331,216.809372 
	C65.189201,204.374329 72.276314,194.105591 76.023643,182.616852 
	C83.868362,158.566132 100.958824,140.631165 116.765724,122.167496 
	C124.599014,113.017609 136.342621,107.314445 145.808472,99.440437 
	C160.851776,86.926918 179.843842,83.040108 196.936859,75.022301 
	C207.526886,70.054848 219.035004,70.386612 230.190765,69.061089 
	C240.371368,67.851425 250.504242,65.158997 260.939026,66.705826 
	C275.422028,68.852753 290.153778,69.906105 304.339722,73.276627 
	C314.562744,75.705559 323.869415,81.746834 333.939087,85.118896 
	C352.162018,91.221245 365.615845,104.325226 380.741119,115.103706 
	C394.734436,125.075531 402.948303,139.701599 413.485779,152.478363 
	C428.183075,170.298981 433.610168,192.492203 441.541656,213.366089 
	C444.807983,221.962296 443.516846,232.178787 445.421448,241.427032 
	C449.391174,260.703186 444.983765,279.387421 443.071960,298.359985 
	C441.260468,316.337006 432.148285,331.382782 426.173767,347.702667 
	C419.805634,365.097809 405.966309,377.241760 395.878571,392.012878 
	C389.064850,401.989899 378.373688,407.223572 369.807159,415.003754 
	C350.081238,432.918884 325.196472,440.544952 301.065460,449.303802 
	C291.927032,452.620789 281.410706,452.295258 271.485504,453.243774 
	C263.077942,454.047241 254.768463,456.429688 246.217743,455.240417 
	C231.886795,453.247253 217.487381,451.603729 203.270355,448.980774 
	C192.749298,447.039673 183.643753,440.742767 173.523575,437.475006 
	C149.896851,429.846008 133.016754,412.236084 114.276619,397.509888 
	C108.302917,392.815704 104.402344,385.483337 99.267151,379.186401 
M341.048126,404.525818 
	C341.985657,403.831879 342.910217,403.119568 343.862640,402.446716 
	C360.085052,390.986176 375.917816,379.144409 386.947784,362.097748 
	C390.560303,356.514679 396.221680,352.165253 398.751221,346.036652 
	C406.262543,327.837616 416.899506,310.728027 418.282471,290.311310 
	C418.999573,279.724487 422.761566,269.333588 421.576202,258.649750 
	C419.310852,238.232330 417.079010,218.058807 409.263306,198.395874 
	C400.919220,177.403580 388.825256,158.979507 373.689117,143.450012 
	C358.803528,128.177612 341.801147,114.070320 320.513519,107.167351 
	C310.598541,103.952217 301.762634,97.894829 291.007721,96.713089 
	C278.953217,95.388557 266.966919,91.790756 254.980759,91.921036 
	C240.448273,92.078972 225.577591,93.669739 211.535263,97.287666 
	C197.300842,100.955086 182.680740,105.949356 170.426636,113.794388 
	C153.508636,124.625229 135.947006,135.469711 124.237305,152.906967 
	C117.036850,163.629395 107.205482,172.483032 102.662910,185.122818 
	C98.838730,195.763672 92.051285,205.713562 90.161865,216.592194 
	C86.951828,235.074524 81.964195,253.564423 85.146706,272.863983 
	C87.734146,288.554871 89.498985,304.104309 95.023048,319.418121 
	C103.092499,341.788300 115.717949,361.259399 131.626434,377.778992 
	C145.605988,392.295593 161.557739,405.855957 181.421173,412.924713 
	C192.971069,417.035004 203.444199,424.148132 216.065002,425.276489 
	C231.882629,426.690704 247.311630,431.217102 263.607391,428.870636 
	C281.569305,426.284302 299.644806,424.901245 316.188690,416.426025 
	C320.470184,414.232727 325.088257,412.670044 329.616486,410.992584 
	C333.563385,409.530426 337.245087,407.670410 341.048126,404.525818 
M290.622314,92.688202 
	C305.205322,93.682800 317.019623,102.963593 330.879761,106.684387 
	C330.800079,98.652657 332.391052,95.616867 336.913086,94.807709 
	C341.152100,94.049179 344.027649,95.798119 345.548126,99.781075 
	C347.111328,103.875984 345.395813,106.876205 339.393494,110.387657 
	C361.136322,126.882469 383.689789,142.431793 397.422272,168.340103 
	C400.241272,159.680740 403.253876,157.423126 408.422668,158.720596 
	C412.228912,159.676041 414.637909,163.342773 413.887878,167.039215 
	C412.894409,171.935364 409.377350,173.806641 402.892792,173.077286 
	C407.950775,185.718979 412.912903,198.551544 418.211029,211.243881 
	C423.693970,224.378952 422.019379,238.730179 425.403381,252.335495 
	C430.015930,247.612686 433.524170,246.748932 437.208038,249.499573 
	C440.646973,252.067337 441.293762,255.518768 439.440826,259.244385 
	C437.376404,263.395325 433.496521,263.985687 425.944519,261.123291 
	C422.906250,323.451752 397.042084,373.052704 344.074249,407.608643 
	C347.814301,407.091553 350.842499,408.037689 353.240051,410.595215 
	C355.688995,413.207581 355.498688,416.535828 354.846863,420.842377 
	C365.971558,412.415863 377.748932,406.074951 386.052338,396.667725 
	C403.282257,377.147400 420.499207,357.220276 428.505432,331.448334 
	C431.205597,322.756592 436.561432,315.005890 437.684631,305.683655 
	C438.717804,297.108612 440.125122,288.579193 441.310425,280.021759 
	C442.130615,274.100708 443.890381,268.082153 443.417938,262.254089 
	C442.196320,247.184753 440.417297,232.124664 438.006409,217.198883 
	C436.029297,204.958649 429.558411,194.130722 425.218475,182.626633 
	C423.054749,176.891098 421.481598,170.800217 417.812500,165.766541 
	C409.962372,154.996887 402.290833,144.062210 393.848389,133.767365 
	C381.255219,118.411049 364.117920,108.298431 348.724854,96.183113 
	C348.468872,95.981659 348.136780,95.871017 347.830811,95.739906 
	C338.653046,91.807007 329.446747,87.939171 320.303009,83.928757 
	C311.147766,79.913315 302.002136,76.074356 291.828003,75.268944 
	C285.542206,74.771317 279.334381,73.331512 273.051392,72.744362 
	C265.404388,72.029762 257.865143,69.127243 249.693634,71.156410 
	C255.987610,75.132065 257.632202,79.703491 254.585373,84.009079 
	C252.083511,87.544502 246.740112,88.402542 243.543411,85.782173 
	C239.250641,82.263351 239.596146,76.956779 243.913986,72.306145 
	C213.314362,71.059883 185.783401,83.028870 157.352188,96.027008 
	C164.502075,97.470222 167.525085,100.490379 167.172318,104.827034 
	C166.846893,108.827637 163.468262,112.168716 159.665771,112.201942 
	C157.575989,112.220200 155.813904,111.382187 154.206070,110.072906 
	C151.280731,107.690712 151.613220,104.290688 151.755432,101.502220 
	C125.315254,115.671867 107.223625,138.119308 90.752914,161.928696 
	C96.741989,161.352982 100.739494,163.047928 101.986206,167.211243 
	C103.174698,171.180130 102.658936,174.878006 98.716293,177.248825 
	C96.283905,178.711533 93.612656,178.709305 90.993256,177.843277 
	C88.403259,176.986984 87.118073,174.569824 85.885315,172.734467 
	C70.837219,197.735428 65.077538,225.041916 63.522617,254.143234 
	C68.757050,251.253204 73.626236,250.291626 77.446770,255.112579 
	C79.881187,258.184479 80.127731,261.885345 77.954773,265.398346 
	C76.868233,267.154907 75.199043,268.288788 73.243675,268.929535 
	C69.856712,270.039429 66.817596,268.641632 63.987923,267.198456 
	C63.653233,296.930725 72.358719,324.055511 85.512749,350.108307 
	C88.096687,343.212524 93.639595,342.194580 100.833389,344.093018 
	C99.374908,340.233002 98.166031,337.153259 97.043526,334.042358 
	C91.705673,319.249268 83.644623,305.336060 83.112503,289.005920 
	C82.697540,276.271240 78.410004,263.809967 80.645004,250.850479 
	C83.851189,232.259628 84.316864,213.107620 93.569809,195.852554 
	C97.725548,188.102844 99.376350,178.736588 104.491646,171.827286 
	C118.409950,153.027634 131.832474,133.499161 152.642990,121.115562 
	C158.504639,117.627502 162.873428,111.836235 169.297745,109.298660 
	C190.104034,101.080261 210.181442,90.409935 233.381714,90.014999 
	C241.355896,89.879257 249.187775,86.955551 257.182312,87.862045 
	C268.076569,89.097343 278.893768,91.012535 290.622314,92.688202 
M250.631134,447.944580 
	C246.014099,443.601379 247.938797,439.080200 250.918503,434.262970 
	C236.347458,432.193817 222.188553,431.041534 208.451538,427.990143 
	C194.819946,424.962097 182.717880,417.141266 168.975052,412.366089 
	C171.680222,420.471863 170.918808,423.142334 165.043961,428.257355 
	C205.543381,451.102081 248.948395,454.794739 293.796112,446.436707 
	C313.248810,442.811462 330.569489,432.972717 348.711182,425.164673 
	C345.080811,424.707306 342.268097,423.662964 340.161530,420.951172 
	C338.070923,418.259918 338.785156,415.078247 338.844055,411.737640 
	C325.846558,416.917755 313.390533,422.057495 300.802399,426.850189 
	C287.949158,431.743835 273.953918,430.319153 260.611969,433.460327 
	C265.582611,439.024567 266.313049,442.822021 263.338959,446.875488 
	C260.774994,450.370026 256.184937,450.954803 250.631134,447.944580 
M100.344345,358.846619 
	C98.321381,360.649780 95.555984,360.819031 93.169868,361.812439 
	C100.239410,378.070038 137.720520,415.539886 153.322998,421.884979 
	C152.635773,414.425812 156.000397,410.318176 164.034714,409.773407 
	C140.196930,393.328857 119.518234,374.423492 104.448112,349.654114 
	C103.361763,353.114502 103.377602,356.205933 100.344345,358.846619 
M99.404961,350.950867 
	C97.609367,347.281677 94.938599,345.998413 91.452812,348.576202 
	C89.797211,349.800568 89.151405,351.781586 90.189201,353.934448 
	C91.073341,355.768616 92.490616,356.791443 94.515762,356.699188 
	C97.673729,356.555389 99.298729,354.763824 99.404961,350.950867 
M66.367203,259.112640 
	C66.474686,264.074768 68.794220,266.463043 72.189598,265.066162 
	C74.193031,264.241913 75.472176,262.694489 75.491096,260.532837 
	C75.508408,258.554749 74.264816,257.136871 72.488136,256.333649 
	C69.899429,255.163345 68.035194,256.215454 66.367203,259.112640 
M166.548615,419.341705 
	C165.896820,415.570953 163.959641,413.552795 160.033737,415.162018 
	C158.311447,415.868011 157.154953,417.506287 157.491821,419.581177 
	C157.810928,421.546722 159.153503,422.969391 160.999435,423.371552 
	C163.671341,423.953705 165.342255,422.353821 166.548615,419.341705 
M259.964844,444.177826 
	C261.332123,441.553680 261.005859,439.261414 258.311554,437.804016 
	C256.549500,436.850891 254.690598,437.153534 253.329010,438.748108 
	C251.864105,440.463776 251.661575,442.468109 253.069595,444.241028 
	C254.947693,446.605927 257.210785,446.811462 259.964844,444.177826 
M350.975647,416.921539 
	C350.330750,412.438232 348.076477,410.638519 345.116333,412.277405 
	C343.553040,413.142944 342.483582,414.530640 342.618073,416.302460 
	C342.769348,418.295471 344.191467,419.692566 346.034454,420.213226 
	C348.319824,420.858856 349.804260,419.528839 350.975647,416.921539 
M97.983490,168.354614 
	C96.062836,165.706482 93.780807,165.218521 91.342949,167.531693 
	C89.853485,168.944977 89.805588,170.846848 90.882202,172.525620 
	C91.813019,173.977051 93.258560,174.960556 95.094460,174.256561 
	C97.444687,173.355347 99.080032,171.873703 97.983490,168.354614 
M245.902740,76.519974 
	C244.291367,78.336929 243.676895,80.246948 245.828781,82.026306 
	C247.204727,83.164078 248.864822,83.217186 250.393341,82.222656 
	C251.860611,81.267960 252.033020,79.675880 251.490280,78.289398 
	C250.613678,76.050095 248.987045,74.888741 245.902740,76.519974 
M157.409302,107.246429 
	C159.788422,108.182602 161.641556,107.609482 162.547897,105.154724 
	C163.099884,103.659767 162.651337,102.260643 161.292953,101.255142 
	C159.899399,100.223625 158.578018,100.315163 157.307495,101.463196 
	C155.485947,103.109184 154.698593,104.846489 157.409302,107.246429 
M405.674561,169.288971 
	C407.957642,169.246094 409.495880,168.310806 409.570923,165.833786 
	C409.623413,164.100723 408.545410,163.065750 407.020569,162.595062 
	C405.640289,162.168945 404.294159,162.515045 403.633057,163.888855 
	C402.653259,165.924850 403.009644,167.735168 405.674561,169.288971 
M432.630646,258.740448 
	C434.949860,258.684814 436.474426,257.586334 436.337311,255.192917 
	C436.245972,253.598495 434.990051,252.613312 433.358337,252.405731 
	C431.711609,252.196243 430.397247,252.906479 429.774719,254.400375 
	C428.885712,256.533783 430.098938,257.778961 432.630646,258.740448 
M341.649353,102.359100 
	C341.649567,100.003487 340.538025,98.547295 338.126526,98.632118 
	C336.717865,98.681664 335.762054,99.764603 335.441162,101.147842 
	C335.025970,102.937744 335.535736,104.485512 337.323273,105.208252 
	C339.447449,106.067108 340.736847,104.947456 341.649353,102.359100 
z"/>
<path fill="#000000" opacity="1.000000" stroke="none" 
	d="
M381.851135,202.251373 
	C363.354095,234.449112 344.815460,266.623016 326.371338,298.851074 
	C306.765228,333.109619 287.193329,367.388214 267.777100,401.754425 
	C265.794495,405.263611 263.229309,406.774506 259.529968,407.127106 
	C256.716583,407.395203 253.915375,407.844391 251.097107,407.995392 
	C247.221344,408.203003 243.882828,407.091309 241.974640,402.265472 
	C241.143417,404.392700 240.751205,405.441559 240.325729,406.476746 
	C239.128403,409.389923 236.849335,410.894714 233.807526,411.182098 
	C230.629745,411.482330 227.968491,409.977081 226.907257,407.226318 
	C225.705719,404.111969 223.629318,403.579987 220.872894,403.513489 
	C210.665939,403.267365 202.388641,397.302063 193.151245,394.180511 
	C174.562424,387.899017 159.790176,375.446411 146.854095,361.914062 
	C133.181839,347.611603 122.530746,330.651978 115.549019,311.354980 
	C110.227715,296.647278 108.594284,281.716583 106.667358,266.588959 
	C104.732460,251.398682 109.519478,236.961548 111.416222,222.212418 
	C112.093979,216.942200 118.794785,216.021606 123.160500,220.439392 
	C124.885307,222.184769 126.142334,224.435471 127.424431,226.569031 
	C160.885651,282.252655 194.385391,337.913452 227.649841,393.714508 
	C230.491547,398.481476 234.499603,395.490356 238.319366,396.490356 
	C234.781555,390.378143 231.308075,384.227631 227.695892,378.159698 
	C194.297806,322.055359 160.880920,265.962219 127.444115,209.880966 
	C125.913200,207.313248 124.140701,204.889557 122.238029,202.204651 
	C121.995338,202.010513 122.025139,202.051285 122.025139,202.051285 
	C121.284134,192.461395 126.102310,185.225662 132.249817,178.719620 
	C134.073059,176.790024 137.033249,177.714722 139.483643,177.713867 
	C210.125748,177.689301 280.767883,177.702942 351.410004,177.709534 
	C354.742157,177.709854 358.086670,177.520264 361.403351,177.744904 
	C365.475037,178.020676 370.329468,175.969147 373.453583,179.113037 
	C377.744110,183.430771 381.536011,188.393814 383.691559,194.334396 
	C384.329620,196.092880 384.046753,197.572281 383.043945,199.762558 
	C382.442352,201.015594 382.146759,201.633484 381.851135,202.251373 
M207.501358,219.614349 
	C208.744537,217.899658 210.225220,216.282181 209.906784,213.473541 
	C206.547134,213.705780 203.270905,213.907700 199.999832,214.172974 
	C198.989334,214.254898 197.793289,214.539139 197.633560,215.659561 
	C196.963730,220.357651 193.467926,223.929642 192.316360,228.952988 
	C196.176086,228.557678 198.468018,230.615509 200.299988,234.208649 
	C202.532532,228.827759 205.691177,224.850494 207.001282,219.992554 
	C207.001282,219.992554 206.979431,220.020294 207.501358,219.614349 
M263.005432,322.001648 
	C263.005432,322.001648 262.981110,321.983215 263.386719,322.564087 
	C264.710724,323.813812 263.906891,325.894440 265.115204,327.903687 
	C268.216705,322.356781 270.983582,317.408325 274.308746,311.461395 
	C261.960480,311.336884 250.868851,310.964417 239.839127,312.723511 
	C239.784943,314.820038 240.579498,315.978729 242.135483,317.133942 
	C243.561020,315.095734 245.179886,313.032227 248.090225,314.005829 
	C249.794159,314.575806 250.878525,315.917938 251.033035,317.692963 
	C251.348053,321.311737 248.181763,321.981354 245.785660,323.090820 
	C246.341095,324.644897 246.738663,325.889557 248.482483,326.530609 
	C248.649200,323.562012 250.393936,322.617798 253.110657,322.595032 
	C256.419556,322.567322 259.725800,322.223297 263.005432,322.001648 
M275.120911,307.014374 
	C277.226257,306.846008 278.281281,305.360535 279.219879,303.736481 
	C289.223969,286.426636 299.199097,269.099915 309.264160,251.825562 
	C310.511871,249.684143 310.516418,247.962036 309.199677,245.855087 
	C302.755188,235.542679 296.365814,225.194412 290.100647,214.772430 
	C288.526001,212.153000 286.569061,211.159378 283.566345,211.273483 
	C272.745911,211.684586 261.920624,212.013443 251.094208,212.209930 
	C240.766876,212.397354 230.439056,212.348190 220.121109,213.056793 
	C217.152802,213.260651 215.230896,214.161942 213.812546,216.913086 
	C209.156708,225.943985 204.293839,234.868683 199.460129,243.806946 
	C198.418854,245.732407 198.277908,247.439941 199.490646,249.398880 
	C210.890121,267.812531 222.233551,286.260895 233.586945,304.703064 
	C234.687256,306.490387 235.986115,307.818298 238.338333,307.751038 
	C250.324158,307.408142 262.329285,308.147797 275.120911,307.014374 
M190.518311,344.123444 
	C191.058762,343.284058 191.863541,342.341370 191.317780,341.386047 
	C187.163940,334.115173 182.921661,326.894836 178.297455,318.955750 
	C167.879333,330.640533 158.285324,341.451904 148.618393,352.197693 
	C146.817917,354.199097 147.314667,355.668610 149.067490,357.260284 
	C153.872513,361.623474 158.710251,365.955139 163.388245,370.451996 
	C165.863708,372.831604 167.556046,372.856262 169.783615,369.988617 
	C176.418518,361.447174 183.305481,353.101562 190.518311,344.123444 
M158.451981,285.986755 
	C155.599045,281.298798 152.732086,276.619293 149.900620,271.918396 
	C148.882965,270.228821 147.757462,269.071716 145.488831,269.650177 
	C135.517578,272.192627 125.538177,274.706787 115.529510,277.096222 
	C112.991684,277.702087 112.370735,278.818726 112.979790,281.335419 
	C114.500977,287.621124 115.956909,293.935303 117.065620,300.303101 
	C117.671089,303.780609 118.967827,304.691864 122.432892,303.807678 
	C134.656357,300.688599 146.946609,297.831329 159.209930,294.868103 
	C160.294098,294.606140 161.618347,294.740387 162.075851,293.111908 
	C161.614441,290.736908 159.987625,288.782227 158.451981,285.986755 
M315.143402,230.752899 
	C318.202972,235.881210 314.927368,237.846283 310.525299,239.124344 
	C311.276154,240.915237 311.508972,242.602753 313.846405,243.126694 
	C316.119446,238.551758 319.162994,234.482666 320.809692,229.505554 
	C313.811432,228.532257 308.706726,218.865906 311.309723,212.273071 
	C305.589905,211.393982 299.929413,211.176651 293.884064,211.550415 
	C294.841827,214.026718 295.149963,216.031403 297.186890,217.071487 
	C299.400391,215.518372 300.804749,212.200516 304.296112,213.808350 
	C305.896057,214.545135 306.940552,215.941772 307.082916,217.692017 
	C307.418701,221.820587 303.680084,222.381866 300.737305,224.076553 
	C302.678802,226.977097 303.660553,230.162979 306.481934,232.316330 
	C308.963654,230.338806 311.320618,228.308334 315.143402,230.752899 
M154.097610,201.651108 
	C156.956985,195.112839 153.426819,190.684158 143.313126,188.121704 
	C145.567032,197.630127 143.378220,200.592148 134.004730,200.489120 
	C136.354172,203.167084 139.567657,204.254303 142.473587,205.770721 
	C149.024658,209.189423 150.358551,208.732422 154.097610,201.651108 
M363.311523,199.084045 
	C361.032837,197.767578 359.704498,195.751617 359.021027,193.259552 
	C358.312714,190.676804 359.303040,188.368423 361.122742,185.490814 
	C348.413910,192.941360 348.413879,192.941376 354.353363,201.593109 
	C357.370239,205.987595 361.600525,205.995468 366.909637,201.594910 
	C366.604767,199.946625 364.943207,200.097519 363.311523,199.084045 
M260.228302,380.748413 
	C261.845795,382.092773 263.463287,383.437103 265.126282,384.819275 
	C266.875519,379.452606 266.238892,376.923401 262.580231,374.337311 
	C259.918304,372.455902 251.721542,372.874512 249.368118,375.016083 
	C247.102188,377.078064 246.681335,379.343262 248.442688,382.109711 
	C252.220306,381.067780 255.553391,378.320496 260.228302,380.748413 
M119.098373,269.589752 
	C115.259727,270.707214 115.259727,270.707214 112.329636,273.479462 
	C123.320274,270.759155 133.704758,269.429199 143.142242,264.680420 
	C135.079742,264.963257 127.545761,267.529663 119.098373,269.589752 
M257.905457,384.389069 
	C255.163055,383.667786 253.008942,384.337830 251.808258,387.068970 
	C250.974350,388.965820 251.411133,390.643646 253.022491,391.913422 
	C255.072617,393.529022 257.336823,393.868774 259.249359,391.893799 
	C261.675415,389.388641 261.211578,386.883698 257.905457,384.389069 
M368.037964,187.836472 
	C365.238098,187.452728 363.596008,188.659027 363.310364,191.466339 
	C363.124969,193.288025 363.921234,194.715256 365.690063,195.350998 
	C367.400024,195.965591 369.038788,195.669250 370.037781,194.052948 
	C371.485413,191.710800 371.013885,189.671677 368.037964,187.836472 
M255.655075,399.915710 
	C261.090729,399.208038 261.230743,399.131927 263.251740,395.335693 
	C258.120453,398.844849 253.444138,397.480377 248.067322,394.707855 
	C249.886765,398.334717 252.310822,399.179901 255.655075,399.915710 
M232.790192,406.757629 
	C234.892090,406.941864 236.373138,406.237885 236.557053,403.931091 
	C236.678299,402.409943 235.717926,401.524109 234.455200,400.909271 
	C232.984177,400.193085 231.857315,400.806793 231.073853,401.998932 
	C229.885651,403.806915 230.118942,405.407776 232.790192,406.757629 
M136.209045,190.991241 
	C133.968063,192.661682 133.808884,194.445969 136.194885,196.016724 
	C137.750046,197.040512 139.226364,196.157333 139.806381,194.731262 
	C140.919235,191.995193 139.397110,190.846817 136.209045,190.991241 
z"/>
<path fill="#000000" opacity="1.000000" stroke="none" 
	d="
M325.882568,318.922485 
	C344.163208,286.390137 362.284393,254.189636 380.366547,221.967178 
	C382.225586,218.654388 384.654938,216.495560 388.684753,216.749954 
	C392.664856,217.001236 393.776306,220.054291 394.763031,223.101303 
	C397.295837,230.922379 396.684845,239.226425 398.313934,247.176804 
	C401.854889,264.457886 397.270172,281.185425 394.857361,298.016846 
	C393.548981,307.143921 388.460052,315.100464 384.815979,323.459259 
	C373.870209,348.566803 355.708954,367.348541 333.556793,383.095245 
	C321.721008,391.508667 308.241821,395.426178 295.331238,401.008484 
	C291.592590,402.625031 287.590973,403.438293 284.967407,407.334839 
	C283.061615,410.165283 279.520844,410.441284 276.364471,408.834534 
	C273.371765,407.311127 272.202209,404.661407 272.625977,401.332764 
	C273.100220,397.607941 275.603638,395.277374 278.951965,395.449219 
	C282.954803,395.654663 284.096252,393.208221 285.555786,390.614563 
	C298.942413,366.826416 312.326904,343.037079 325.882568,318.922485 
M359.265869,354.097931 
	C361.084320,352.163727 359.585327,350.778107 358.467743,349.343384 
	C350.481750,339.090790 342.498413,328.836060 334.485748,318.604370 
	C333.911316,317.870850 333.399078,316.819061 331.582520,317.343628 
	C327.618042,324.382141 323.456879,331.755707 319.314545,339.139862 
	C318.717133,340.204742 318.441742,341.350861 319.287842,342.420624 
	C326.697052,351.788513 334.120178,361.145447 341.971741,371.051392 
	C347.936859,365.222107 353.378510,359.904358 359.265869,354.097931 
M392.619934,286.290436 
	C392.955017,284.156403 393.343658,282.029083 393.611786,279.886658 
	C393.951996,277.168396 393.197968,275.499664 389.971191,275.287994 
	C382.668671,274.808929 375.287201,274.564606 368.120270,273.238647 
	C359.515137,271.646576 353.844849,273.915710 350.999512,282.534851 
	C350.127625,285.175964 348.280670,287.487488 346.946411,289.985291 
	C344.545990,294.479126 345.085907,295.259827 350.200806,295.691986 
	C360.474396,296.560150 370.747101,297.464813 380.999298,298.551788 
	C390.416595,299.550201 390.500580,299.581940 391.848724,290.071930 
	C391.988281,289.087158 392.297791,288.126495 392.619934,286.290436 
M389.642120,268.583618 
	C380.311493,268.312042 371.065948,265.850159 361.634308,267.660400 
	C372.261383,270.215057 383.046204,270.720184 394.679779,271.421600 
	C393.142761,268.755646 391.592804,269.217590 389.642120,268.583618 
M277.734070,404.752014 
	C279.614563,406.138092 281.121887,405.591644 282.225769,403.749847 
	C282.870758,402.673737 282.677155,401.511139 281.843658,400.567841 
	C280.883575,399.481323 279.622375,399.018097 278.337555,399.813202 
	C276.601868,400.887299 275.778229,402.351532 277.734070,404.752014 
z"/>
<path fill="#000000" opacity="1.000000" stroke="none" 
	d="
M309.508545,126.417419 
	C327.039551,131.872864 340.177673,143.496582 353.680878,154.564957 
	C356.916443,157.217117 359.676819,160.169373 364.997955,158.455429 
	C368.835815,157.219238 371.889404,160.268860 372.773773,164.421707 
	C373.570160,168.161713 372.024506,171.155029 368.671570,172.641220 
	C364.981995,174.276627 361.432495,173.558136 358.974884,170.024521 
	C358.142487,168.827728 357.688263,167.367935 357.179230,166.280426 
	C291.940948,165.155518 226.879868,165.338730 161.819763,165.271225 
	C159.989563,165.269333 158.137070,165.362335 156.334335,165.119263 
	C153.398849,164.723495 151.535965,162.842331 150.762146,160.068848 
	C149.987579,157.292664 150.533768,154.937531 153.117844,153.072067 
	C162.295731,146.446548 171.091476,139.243927 180.588211,133.122910 
	C188.274872,128.168549 197.613785,126.486176 205.848816,122.554329 
	C216.033249,117.691727 227.060760,117.579918 237.783417,115.542206 
	C255.803375,112.117744 273.103577,116.638725 290.612030,119.067101 
	C297.296417,119.994202 302.971741,123.869370 309.508545,126.417419 
M197.906143,132.396393 
	C201.171219,140.945694 204.449615,149.489960 207.691101,158.048187 
	C208.419937,159.972458 209.649643,161.015091 211.777588,161.058228 
	C219.102417,161.206726 226.425262,161.477844 233.750534,161.569626 
	C237.070450,161.611237 238.317734,160.058426 236.910202,156.763550 
	C232.463638,146.354767 228.029175,135.940338 223.684570,125.488777 
	C222.529861,122.710976 220.851776,122.276749 218.167908,123.255943 
	C212.384811,125.365891 206.529526,127.278580 200.697540,129.253525 
	C199.399353,129.693130 198.178574,130.176331 197.906143,132.396393 
M293.954559,157.544785 
	C297.586304,148.217102 301.670898,139.048264 304.658142,129.056946 
	C297.497223,126.933952 290.933807,125.184746 284.516388,123.005608 
	C281.123535,121.853500 279.649628,123.064064 278.511902,126.030617 
	C274.707306,135.950821 270.765564,145.818375 266.940247,155.730728 
	C266.302185,157.384079 265.457306,159.079376 266.216217,161.554779 
	C274.176453,161.554779 282.262024,161.595993 290.346619,161.525391 
	C292.332428,161.508041 293.038300,159.833954 293.954559,157.544785 
M300.931335,151.288254 
	C299.814514,154.438736 297.831696,157.372360 298.126709,161.271500 
	C302.377716,157.915039 310.892944,135.510422 309.189850,130.500320 
	C306.278564,137.789612 303.727753,144.176376 300.931335,151.288254 
M367.365021,163.221069 
	C365.326813,161.870178 363.672516,162.233368 362.333740,164.286011 
	C361.324890,165.832733 361.822266,167.076904 362.977051,168.253464 
	C364.161316,169.460083 365.468140,169.866577 366.940338,168.814453 
	C368.887604,167.422806 369.203186,165.696884 367.365021,163.221069 
z"/>
<path fill="#000000" opacity="1.000000" stroke="none" 
	d="
M145.031082,171.916183 
	C141.906982,175.065582 138.481750,175.348419 135.163818,173.539810 
	C132.168610,171.907104 130.890961,168.990005 131.391800,165.485764 
	C131.901260,161.921265 134.090546,159.830765 137.453354,159.010056 
	C140.705063,158.216476 143.382889,159.442474 145.359970,162.020905 
	C147.788208,165.187714 147.795197,168.444290 145.031082,171.916183 
M139.492203,163.181686 
	C137.005020,163.400986 135.370773,164.625916 135.478058,167.239029 
	C135.554092,169.090454 136.895264,170.224167 138.684692,170.504440 
	C140.320969,170.760757 141.716537,169.958542 142.309692,168.474426 
	C143.211365,166.218430 142.878128,164.225891 139.492203,163.181686 
z"/>
<path fill="#000000" opacity="1.000000" stroke="none" 
	d="
M381.804169,202.657257 
	C382.146759,201.633484 382.442352,201.015594 382.941284,200.119263 
	C390.008667,195.719940 396.158173,197.964584 396.418640,204.685989 
	C396.582367,208.911072 394.227936,211.847305 390.292969,212.325394 
	C385.783142,212.873337 382.394073,210.418015 381.737518,206.039261 
	C381.592194,205.069992 381.742828,204.056351 381.804169,202.657257 
M385.645630,204.755478 
	C386.122955,207.748901 387.666687,209.252502 390.735260,208.023041 
	C392.008423,207.512924 392.677246,206.256180 392.549225,204.787125 
	C392.420258,203.308151 391.459167,202.378128 390.182770,201.886887 
	C387.975800,201.037460 386.852661,202.504517 385.645630,204.755478 
z"/>
<path fill="#000000" opacity="1.000000" stroke="none" 
	d="
M121.977692,201.992462 
	C123.611259,205.863739 123.627541,209.597641 119.845345,212.158432 
	C116.824883,214.203491 113.421936,214.099197 110.719978,211.410736 
	C108.042053,208.746216 107.757790,205.367981 109.843071,202.311279 
	C111.898712,199.298004 114.982574,198.167999 118.566643,199.722488 
	C119.607857,200.174072 120.496918,200.976456 121.740433,201.834656 
	C122.025139,202.051285 121.995338,202.010513 121.977692,201.992462 
M117.455681,208.764282 
	C118.905403,207.223679 119.273567,205.576538 117.632500,203.993256 
	C116.715294,203.108322 115.452492,203.137421 114.383881,203.733902 
	C113.175545,204.408325 112.151161,205.514343 112.675240,206.958542 
	C113.347198,208.810257 114.646019,210.043732 117.455681,208.764282 
z"/>
<path fill="#000000" opacity="1.000000" stroke="none" 
	d="
M418.934814,350.755981 
	C416.491302,354.196442 413.626770,355.838165 409.752319,354.450195 
	C406.453735,353.268463 404.580811,350.896088 404.684998,347.278839 
	C404.779419,344.001373 406.249481,341.562500 409.380249,340.299194 
	C412.312897,339.115784 414.982880,339.707733 417.202087,341.838745 
	C419.684479,344.222473 420.626831,347.080109 418.934814,350.755981 
M408.653717,346.779510 
	C408.412659,349.230011 409.675354,350.446594 411.983154,350.605713 
	C413.618744,350.718475 414.811859,349.857452 415.371613,348.329102 
	C415.862946,346.987640 415.629425,345.629150 414.389313,344.849518 
	C412.229736,343.491730 410.364532,344.018768 408.653717,346.779510 
z"/>
<path fill="#000000" opacity="1.000000" stroke="none" 
	d="
M275.774109,278.689880 
	C271.750275,286.008301 267.984802,293.049103 264.042328,299.989380 
	C259.623871,307.767548 253.124603,307.917053 248.281921,300.349823 
	C235.909973,281.017303 223.621887,261.631104 211.263199,242.290115 
	C208.987869,238.729248 207.726181,235.174164 209.902817,231.073059 
	C212.068283,226.993011 215.716309,226.746643 219.721634,226.753845 
	C241.682480,226.793350 263.643555,226.692017 285.604523,226.699463 
	C296.212952,226.703079 300.314331,233.494202 295.293549,242.886047 
	C288.943268,254.764709 282.409149,266.545074 275.774109,278.689880 
z"/>
<path fill="#000000" opacity="1.000000" stroke="none" 
	d="
M263.019318,322.008850 
	C262.913940,321.903290 262.800446,321.783569 262.674591,321.678711 
	C260.649078,319.991211 259.138763,318.084595 260.646301,315.332031 
	C261.574219,313.637848 263.081024,312.515717 265.097992,312.944031 
	C267.312286,313.414246 268.299622,315.124542 268.408295,317.279480 
	C268.572632,320.538879 266.276611,321.371185 263.337097,321.920349 
	C262.981110,321.983215 263.005432,322.001648 263.019318,322.008850 
z"/>
<path fill="#000000" opacity="1.000000" stroke="none" 
	d="
M207.009537,219.976685 
	C206.219040,220.780991 205.538208,221.787415 204.597321,222.383133 
	C202.558685,223.673874 200.722122,222.935623 199.482910,221.121124 
	C198.064377,219.044067 198.477951,216.925430 200.506271,215.515244 
	C202.261826,214.294678 204.322922,214.230286 205.791763,216.071945 
	C206.457642,216.906860 206.586823,218.169800 206.969452,219.629425 
	C206.979431,220.020294 207.001282,219.992554 207.009537,219.976685 
z"/>
</svg>